<svg version="1.1" id="home-signature" xmlns="http://www.w3.org/2000/svg" xmlns:xlink="http://www.w3.org/1999/xlink" x="0px"
	 y="0px" width="230px" height="70px" viewBox="0 0 230 70" enable-background="new 0 0 230 70" xml:space="preserve">
<path fill="none" stroke="#524F4F" stroke-width="1.3" stroke-linecap="round" stroke-linejoin="round" stroke-miterlimit="10" d="
	M34.884,68.312l1.686-0.602c4.814-2.006,6.519-4.012,6.519-4.012s2.224-21.449,0.902-22.467c-1.303-1.004-3.009,15.545-0.2,23.971
	c2.155,6.466,10.294-0.612,10.294-0.612s11.971-9.687,13.575-18.944c-1.755,0.353-9.899,20.369,13.389,21.006
	c16.598,0.457,35.854-12.981,70.456-13.784c15.468-0.358,46.203,1.71,46.203,1.71"/>
<g>
	<path fill="#524F4F" d="M212.912,58.741c-0.029,0.032-0.057,0.065-0.086,0.097c0.037,0.008,0.072,0.021,0.08-0.009
		C212.9,58.791,212.904,58.766,212.912,58.741z"/>
	<path fill="#524F4F" d="M213.005,58.635c-0.005,0.006-0.01,0.012-0.017,0.018c0.016-0.006,0.025-0.012,0.041-0.02
		C213.021,58.633,213.014,58.634,213.005,58.635z"/>
	<path fill="#524F4F" d="M213.092,58.6c0.032-0.021,0.062-0.041,0.084-0.078C213.131,58.542,213.105,58.566,213.092,58.6z"/>
	<path fill="#524F4F" d="M213.092,58.6c-0.021,0.012-0.043,0.021-0.062,0.033l0,0c0.029-0.005,0.041,0.018,0.05,0.043
		C213.076,58.65,213.081,58.623,213.092,58.6z"/>
	<path fill="#524F4F" d="M213.088,58.746c-0.006-0.016-0.006-0.046-0.01-0.07C213.078,58.699,213.081,58.723,213.088,58.746z"/>
	<path fill="#524F4F" d="M213.127,59.133c-0.031,0.062-0.059,0.124-0.086,0.184c0.027-0.039,0.051-0.08,0.091-0.108
		c0.165-0.086,0.335-0.149,0.501-0.228c0.172-0.131,0.311-0.209,0.494-0.361c0.117-0.104-0.22-0.062-0.324-0.02
		c-0.058,0.006,0.016,0.176-0.039,0.185c-0.07,0.069-0.183,0.083-0.287,0.124c-0.055,0.007,0.057,0.113,0.03,0.119
		C213.381,59.102,213.161,59.038,213.127,59.133z"/>
	<path fill="#524F4F" d="M212.227,59.57c-0.008,0.041,0.028,0.072,0.053,0.107c0.096-0.07,0.164-0.164,0.185-0.314
		c-0.013,0.061,0.022,0.086,0.072,0.051c-0.009-0.028-0.015-0.059-0.022-0.088c-0.104,0.043-0.211,0.085-0.201,0.234
		C212.312,59.561,212.255,59.568,212.227,59.57z"/>
	<path fill="#524F4F" d="M212.279,59.68c-0.021,0.014-0.038,0.027-0.061,0.039c0,0.002,0.004,0.004,0.004,0.006
		c0.021-0.012,0.043-0.022,0.062-0.033C212.284,59.686,212.282,59.684,212.279,59.68z"/>
	<path fill="#524F4F" d="M220.295,59.059c0.032,0.028,0.064,0.058,0.098,0.084c0.006-0.035,0.021-0.072-0.013-0.078
		C220.346,59.068,220.318,59.066,220.295,59.059z"/>
	<path fill="#524F4F" d="M220.205,58.98c-0.007-0.013-0.014-0.024-0.02-0.041c0,0.012,0.002,0.018,0.002,0.023
		C220.193,58.971,220.2,58.977,220.205,58.98z"/>
	<path fill="#524F4F" d="M220.078,58.796c0.018,0.042,0.043,0.069,0.074,0.083C220.135,58.848,220.109,58.816,220.078,58.796z"/>
	<path fill="#524F4F" d="M220.229,58.895c-0.026,0.002-0.053-0.004-0.076-0.016c0.013,0.021,0.023,0.043,0.033,0.062l0,0
		C220.18,58.913,220.204,58.9,220.229,58.895z"/>
	<path fill="#524F4F" d="M220.299,58.883c-0.016,0.004-0.046,0.004-0.07,0.012C220.252,58.895,220.275,58.891,220.299,58.883z"/>
	<path fill="#524F4F" d="M220.337,58.208c0.067,0.069,0.082,0.181,0.125,0.287c0.006,0.055,0.113-0.06,0.118-0.031
		c0.072,0.127,0.009,0.345,0.104,0.378c0.065,0.032,0.127,0.061,0.187,0.086c-0.04-0.025-0.081-0.05-0.11-0.09
		c-0.087-0.164-0.148-0.335-0.227-0.501c-0.131-0.17-0.21-0.31-0.362-0.491c-0.103-0.119-0.062,0.217-0.019,0.322
		C220.156,58.225,220.329,58.15,220.337,58.208z"/>
	<path fill="#524F4F" d="M220.968,59.438c-0.028,0.008-0.059,0.015-0.087,0.021c0.042,0.106,0.084,0.211,0.232,0.202
		c0,0,0.007,0.057,0.011,0.084c0.039,0.008,0.073-0.027,0.108-0.053c-0.072-0.096-0.164-0.166-0.316-0.185
		C220.977,59.521,221.003,59.484,220.968,59.438z"/>
	<path fill="#524F4F" d="M221.244,59.686c-0.006,0-0.008,0.006-0.012,0.006c0.013,0.019,0.026,0.037,0.039,0.06
		c0.002-0.001,0.004-0.001,0.004-0.001C221.264,59.727,221.254,59.707,221.244,59.686z"/>
	<path fill="#524F4F" d="M211.757,51.566c0.236,0.262,0.66,0.791,1.019,0.953c0.949,0.395,1.408,1.147,2.203,1.686
		c0.398,0.268,0.785,0.562,1.172,0.884c0.056,0.048,0.111,0.097,0.164,0.146c-0.405,0.439-0.807,0.857-1.188,1.339
		c-0.086,0.104-0.174,0.21-0.259,0.313c-0.044,0.057-0.088,0.107-0.131,0.16c0,0.006,0,0.018-0.004,0.023
		c-0.002-0.006-0.002-0.012-0.002-0.019c-0.01,0.017-0.021,0.028-0.033,0.039c0.027,0.081-0.033,0.113-0.094,0.146
		c-0.017,0.008-0.033,0.02-0.052,0.029c-0.059,0.07-0.114,0.139-0.177,0.209c0.01,0,0.018-0.004,0.023-0.004
		c0.004-0.002,0.01-0.003,0.012-0.007l0,0c0.004,0,0.004,0,0.004,0c0.014-0.009,0.029-0.015,0.05-0.024
		c0-0.004,0.003-0.006,0.006-0.012c0.013-0.005,0.021-0.011,0.032-0.018c-0.012,0.011-0.025,0.02-0.038,0.029
		c-0.014,0.021-0.017,0.047-0.015,0.076c0.006,0.024,0.006,0.053,0.009,0.067c-0.006-0.021-0.009-0.048-0.009-0.067
		c-0.008-0.027-0.021-0.049-0.049-0.047c0,0,0,0-0.002,0c-0.014,0.01-0.024,0.016-0.037,0.022c-0.026,0.03-0.053,0.06-0.078,0.09
		c-0.008,0.022-0.012,0.052-0.006,0.084c-0.008,0.033-0.043,0.019-0.08,0.013c-0.182,0.202-0.373,0.405-0.588,0.609
		c0,0-0.037,0.18-0.019,0.27c0.021-0.014,0.039-0.024,0.06-0.039c-0.023-0.035-0.062-0.066-0.053-0.106
		c0.028-0.003,0.084-0.011,0.084-0.011c-0.009-0.149,0.096-0.192,0.2-0.234c0.009,0.029,0.017,0.059,0.022,0.087
		c-0.047,0.035-0.084,0.011-0.07-0.052c-0.02,0.152-0.091,0.246-0.184,0.316c0,0.002,0.004,0.008,0.006,0.012
		c0.189-0.094,0.4-0.189,0.599-0.258c0.026-0.008,0.056-0.018,0.082-0.025c0.031-0.023,0.056-0.057,0.077-0.09
		c0.025-0.061,0.052-0.121,0.084-0.186c0.033-0.095,0.252-0.031,0.379-0.106c0.025-0.003-0.085-0.109-0.031-0.116
		c0.105-0.043,0.219-0.057,0.287-0.125c0.057-0.007-0.016-0.18,0.04-0.186c0.104-0.043,0.44-0.084,0.324,0.021
		c-0.185,0.149-0.323,0.229-0.493,0.36c0.184-0.086,0.361-0.188,0.525-0.351c0.103-0.102,0.185-0.291,0.33-0.399
		c0.231-0.119,0.517-0.197,0.724-0.404c0.205-0.223,0.417-0.42,0.632-0.612c0.293,0.269,0.586,0.534,0.907,0.791
		c0.108,0.089,0.214,0.177,0.315,0.261c0.055,0.045,0.107,0.088,0.162,0.133c0.006,0,0.012,0,0.022,0
		c-0.007,0.002-0.013,0.002-0.017,0.005c0.012,0.012,0.025,0.021,0.037,0.03c0.082-0.023,0.113,0.035,0.146,0.098
		c0.008,0.017,0.019,0.031,0.03,0.049c0.07,0.061,0.141,0.116,0.209,0.178c-0.002-0.011-0.002-0.018-0.006-0.025
		c-0.002-0.004-0.002-0.006-0.006-0.012l0,0l0,0c-0.008-0.017-0.018-0.033-0.025-0.051c-0.004-0.001-0.006-0.004-0.01-0.007
		c-0.006-0.011-0.013-0.022-0.02-0.033c0.012,0.015,0.021,0.025,0.027,0.04c0.023,0.012,0.051,0.016,0.078,0.016
		c0.023-0.006,0.056-0.006,0.067-0.013c-0.022,0.009-0.045,0.013-0.067,0.013c-0.027,0.006-0.049,0.02-0.047,0.047l0,0
		c0.008,0.015,0.017,0.027,0.022,0.039c0.03,0.025,0.06,0.052,0.091,0.08c0.023,0.006,0.049,0.01,0.083,0.004
		c0.034,0.008,0.019,0.043,0.013,0.08c0.203,0.181,0.406,0.371,0.61,0.586c0,0,0.181,0.039,0.271,0.021
		c-0.015-0.021-0.026-0.042-0.041-0.06c-0.033,0.025-0.067,0.062-0.106,0.052c-0.002-0.024-0.009-0.083-0.009-0.083
		c-0.149,0.01-0.193-0.098-0.235-0.202c0.029-0.007,0.058-0.013,0.087-0.021c0.035,0.049,0.01,0.084-0.051,0.07
		c0.15,0.021,0.243,0.09,0.314,0.184c0.002-0.002,0.009-0.004,0.013-0.008c-0.095-0.189-0.188-0.399-0.257-0.598
		c-0.01-0.025-0.021-0.056-0.026-0.083c-0.024-0.03-0.058-0.055-0.091-0.075c-0.059-0.024-0.12-0.053-0.186-0.086
		c-0.095-0.035-0.029-0.25-0.107-0.378c-0.001-0.028-0.107,0.087-0.115,0.03c-0.042-0.105-0.059-0.219-0.124-0.286
		c-0.007-0.058-0.18,0.017-0.188-0.04c-0.041-0.104-0.082-0.441,0.022-0.322c0.15,0.183,0.231,0.32,0.359,0.492
		c-0.084-0.185-0.187-0.361-0.349-0.525c-0.102-0.104-0.291-0.186-0.4-0.332c-0.118-0.23-0.198-0.514-0.403-0.724
		c-0.044-0.036-0.084-0.077-0.125-0.118c0.257-0.246,0.499-0.507,0.707-0.812c0.136-0.151,0.28-0.261,0.373-0.407
		c0.373-0.586,1.261-0.805,1.229-1.613c-0.008-0.545,0.613-0.914,0.461-0.494c0.183-0.654,0.564-0.592,0.367-1.198
		c-0.011-0.042-0.312-0.688-0.826-0.537c-0.262,0.237-0.793,0.663-0.953,1.019c-0.395,0.95-1.149,1.41-1.688,2.202
		c-0.187,0.278-0.388,0.554-0.602,0.823c-0.348-0.393-0.703-0.771-1.155-1.077c-0.151-0.136-0.261-0.28-0.405-0.374
		c-0.589-0.372-0.807-1.262-1.613-1.229c-0.547,0.009-0.916-0.612-0.498-0.463c-0.651-0.18-0.59-0.564-1.196-0.364
		C212.252,50.75,211.607,51.052,211.757,51.566z M218.113,56.76c0.103-0.007,0.181,0.034,0.207,0.1
		C218.221,56.87,218.127,56.864,218.113,56.76z M215.211,56.561c0.005,0.103-0.033,0.182-0.1,0.207
		C215.102,56.67,215.105,56.573,215.211,56.561z"/>
</g>
<g>
	<path fill="#524F4F" d="M196.305,55.122c-0.352-0.021,0.324,0.06,2.049,0.081c0.236,0.003,0.473,0.009,0.698,0.015
		c0.118,0,0.233,0.005,0.354,0.007c0.008-0.004,0.018-0.01,0.035-0.017c-0.01,0.007-0.019,0.009-0.021,0.015
		c0.026,0.002,0.056,0.002,0.083,0.004c0.084-0.074,0.189-0.045,0.297-0.014c0.025,0.01,0.059,0.018,0.092,0.021
		c0.154,0.005,0.312,0.007,0.467,0.013c-0.014-0.007-0.022-0.013-0.035-0.017c-0.008-0.002-0.01-0.004-0.02-0.008l0,0l0,0
		c-0.027-0.009-0.058-0.018-0.087-0.024c-0.006,0.002-0.01,0-0.021,0c-0.021-0.007-0.039-0.013-0.061-0.017
		c0.03,0.006,0.057,0.008,0.08,0.017c0.045-0.007,0.082-0.019,0.118-0.037c0.028-0.022,0.069-0.043,0.079-0.058
		c-0.021,0.022-0.045,0.041-0.079,0.058c-0.028,0.021-0.044,0.047-0.013,0.069l0,0c0.025,0.006,0.051,0.014,0.072,0.02
		c0.067,0.001,0.135,0.004,0.203,0.007c0.041-0.007,0.076-0.022,0.115-0.051c0.055-0.017,0.072,0.026,0.104,0.06
		c0.461,0.021,0.935,0.053,1.434,0.101c0,0,0.281-0.085,0.385-0.159c-0.041-0.012-0.078-0.018-0.115-0.023
		c-0.019,0.043-0.027,0.096-0.09,0.112c-0.031-0.021-0.1-0.063-0.1-0.063c-0.191,0.106-0.363,0.045-0.528-0.02
		c0.032-0.025,0.062-0.049,0.095-0.072c0.101,0.017,0.102,0.063,0.008,0.094c0.227-0.084,0.421-0.084,0.615-0.051
		c0.002-0.002,0.004-0.011,0.01-0.015c-0.325-0.103-0.674-0.219-0.969-0.346c-0.039-0.015-0.084-0.033-0.125-0.052
		c-0.063-0.012-0.131-0.012-0.199-0.004c-0.105,0.016-0.217,0.031-0.338,0.049c-0.164,0.031-0.303-0.195-0.539-0.256
		c-0.033-0.022-0.058,0.146-0.125,0.104c-0.166-0.063-0.305-0.149-0.465-0.166c-0.07-0.044-0.229,0.133-0.297,0.09
		c-0.166-0.062-0.572-0.321-0.307-0.292c0.396,0.061,0.646,0.124,1.001,0.188c-0.308-0.103-0.631-0.188-1.021-0.221
		c-0.246-0.021-0.586,0.033-0.887-0.021c-0.4-0.121-0.8-0.31-1.297-0.353c-0.098-0.006-0.195-0.013-0.29-0.021 M198.148,54.684
		c0.175,0.006,0.297,0.062,0.328,0.135C198.303,54.816,198.148,54.798,198.148,54.684z"/>
</g>
<path fill="none" stroke="#524F4F" stroke-width="1.3" stroke-linecap="round" stroke-linejoin="round" stroke-miterlimit="10" d="
	M35.012,68.268c-1.331,0.613-2.554,0.474-2.554,0.474c-5.717-1.103,3.114-45.908,3.114-45.908S39.06,1.439,33.795,1.29
	S17.517,48.466,15.743,48.93c-1.774,0.463-2.508-26.478-5.215-25.525c-2.707,0.953-6.019,42.674-8.124,43.125
	c-2.105,0.451,0.601-36.455,0-36.354C1.804,30.275,1,31.378,1,31.378"/>
</svg>
